<svg width="283" height="80" viewBox="0 0 283 80" fill="none" xmlns="http://www.w3.org/2000/svg">
<path d="M56.875 29.0938C48.2917 29.1306 41.9111 30.3125 37.2938 32.3552C33.8483 33.8786 32.5 35.0313 32.5 38.9364V79.875C37.7775 75.1143 42.4608 73.7812 60.9376 73.7812V29.0938H56.875ZM4.0626 29.0938C12.6459 29.1306 19.0265 30.3125 23.6438 32.3552C27.0893 33.8786 28.4376 35.0313 28.4376 38.9364V79.875C23.1601 75.1143 18.4768 73.7812 0 73.7812V29.0938H4.0626Z" fill="black"/>
<path d="M29.9688 19.6868L48.6188 12.3535V26.8537L51.2688 28.2998V11.2953L54.9688 9.8434L29.9688 0L4.96881 9.8434L29.9688 19.6868ZM29.9688 7.3826C31.3438 7.3826 32.4688 7.9239 32.4688 8.613C32.4688 9.302 31.3438 9.8434 29.9688 9.8434C28.5938 9.8434 27.4688 9.302 27.4688 8.613C27.4688 7.9239 28.5938 7.3826 29.9688 7.3826ZM29.9688 22.1476L16.0438 16.66C14.2688 18.9732 13.0438 21.7539 12.6438 24.7808C13.3938 24.6823 14.1688 24.6085 14.9688 24.6085C21.3438 24.6085 26.9188 27.9799 29.9688 33C31.5169 30.4426 33.7132 28.3247 36.3426 26.8537C38.972 25.3827 41.9444 24.6091 44.9688 24.6085C45.7688 24.6085 46.5438 24.6823 47.2938 24.7808C46.8938 21.7539 45.6688 18.9732 43.8938 16.66L29.9688 22.1476Z" fill="black"/>
<path d="M89.1157 33.3384C89.5828 33.3384 89.9132 33.4238 90.1069 33.5947C90.3006 33.7656 90.3975 34.0505 90.3975 34.4492V38.3799C90.3975 38.7786 90.3006 39.0635 90.1069 39.2344C89.9132 39.4053 89.5828 39.4907 89.1157 39.4907C88.6828 39.4907 88.3866 39.3426 88.2271 39.0464C87.6802 38.0096 86.9111 37.2235 85.9199 36.688C84.9287 36.1411 83.8008 35.8677 82.5361 35.8677C81.2829 35.8677 80.3088 36.1582 79.6138 36.7393C78.9302 37.3203 78.5884 38.1007 78.5884 39.0806C78.5884 39.5477 78.708 39.9408 78.9473 40.2598C79.1865 40.5788 79.5283 40.8522 79.9727 41.0801C80.3714 41.2852 80.8385 41.4561 81.374 41.5928C81.9095 41.7181 82.6273 41.8662 83.5273 42.0371C84.5072 42.2308 85.2819 42.396 85.8516 42.5327C86.4326 42.658 87.0023 42.8346 87.5605 43.0625C88.6999 43.5296 89.5885 44.1847 90.2266 45.0278C90.876 45.8595 91.2007 46.9875 91.2007 48.4116C91.2007 49.5965 90.9215 50.639 90.3633 51.5391C89.805 52.4277 88.979 53.1227 87.8853 53.624C86.8029 54.1253 85.4984 54.376 83.9717 54.376C82.8324 54.376 81.7728 54.1709 80.793 53.7607C79.8245 53.3392 78.9814 52.7297 78.2637 51.9321V53.2651C78.2637 53.6639 78.1668 53.9487 77.9731 54.1196C77.7795 54.2905 77.4491 54.376 76.9819 54.376C76.5148 54.376 76.1844 54.2905 75.9907 54.1196C75.797 53.9487 75.7002 53.6639 75.7002 53.2651V48.1382C75.7002 47.7394 75.797 47.4546 75.9907 47.2837C76.1844 47.1128 76.5148 47.0273 76.9819 47.0273C77.4718 47.0273 77.8022 47.2666 77.9731 47.7451C78.4403 49.0667 79.1808 50.0807 80.1948 50.7871C81.2202 51.4935 82.4792 51.8467 83.9717 51.8467C85.43 51.8467 86.5465 51.5334 87.3213 50.9067C88.1074 50.2801 88.5005 49.4484 88.5005 48.4116C88.5005 47.6938 88.3182 47.1128 87.9536 46.6685C87.6004 46.2127 87.082 45.8368 86.3984 45.5405C85.9655 45.3468 85.4927 45.193 84.98 45.0791C84.4673 44.9538 83.7666 44.8 82.8779 44.6177C81.9437 44.4354 81.1576 44.2645 80.5195 44.105C79.8929 43.9455 79.3118 43.7461 78.7764 43.5068C77.8649 43.0967 77.1528 42.5441 76.6401 41.8491C76.1388 41.1427 75.8882 40.2199 75.8882 39.0806C75.8882 37.9071 76.1673 36.8874 76.7256 36.0215C77.2952 35.1556 78.0814 34.4948 79.084 34.0391C80.098 33.5719 81.2487 33.3384 82.5361 33.3384C83.5387 33.3384 84.5072 33.5321 85.4414 33.9194C86.3757 34.3068 87.1732 34.8309 87.834 35.4917V34.4492C87.834 34.0505 87.9308 33.7656 88.1245 33.5947C88.3182 33.4238 88.6486 33.3384 89.1157 33.3384ZM114.34 51.6758C114.728 51.6758 115.001 51.7669 115.161 51.9492C115.332 52.1201 115.417 52.4163 115.417 52.8379C115.417 53.2594 115.332 53.5614 115.161 53.7437C115.001 53.9146 114.728 54 114.34 54H111.794C111.407 54 111.127 53.9146 110.957 53.7437C110.797 53.5614 110.717 53.2594 110.717 52.8379V42.7207C110.717 41.9346 110.586 41.3478 110.324 40.9604C110.074 40.5617 109.663 40.3623 109.094 40.3623C108.558 40.3623 108.063 40.613 107.607 41.1143C107.151 41.6042 106.787 42.2935 106.513 43.1821C106.251 44.0594 106.12 45.062 106.12 46.1899V51.6758H107.094C107.482 51.6758 107.755 51.7669 107.915 51.9492C108.085 52.1201 108.171 52.4163 108.171 52.8379C108.171 53.2594 108.085 53.5614 107.915 53.7437C107.755 53.9146 107.482 54 107.094 54H104.633C104.246 54 103.967 53.9146 103.796 53.7437C103.636 53.5614 103.557 53.2594 103.557 52.8379V42.7207C103.557 41.9346 103.426 41.3478 103.164 40.9604C102.913 40.5617 102.503 40.3623 101.933 40.3623C101.398 40.3623 100.902 40.613 100.446 41.1143C99.9906 41.6042 99.626 42.2935 99.3525 43.1821C99.0905 44.0594 98.9595 45.062 98.9595 46.1899V51.6758H99.8481C100.236 51.6758 100.509 51.7669 100.668 51.9492C100.839 52.1201 100.925 52.4163 100.925 52.8379C100.925 53.2594 100.839 53.5614 100.668 53.7437C100.509 53.9146 100.236 54 99.8481 54H94.9946C94.6073 54 94.3281 53.9146 94.1572 53.7437C93.9977 53.5614 93.918 53.2594 93.918 52.8379C93.918 52.4163 93.9977 52.1201 94.1572 51.9492C94.3281 51.7669 94.6073 51.6758 94.9946 51.6758H96.396V40.5332H94.9946C94.6073 40.5332 94.3281 40.4478 94.1572 40.2769C93.9977 40.0946 93.918 39.7926 93.918 39.3711C93.918 38.9495 93.9977 38.6533 94.1572 38.4824C94.3281 38.3001 94.6073 38.209 94.9946 38.209H97.541C97.9284 38.209 98.2018 38.3001 98.3613 38.4824C98.5322 38.6533 98.6177 38.9495 98.6177 39.3711V41.063C99.1076 39.992 99.6943 39.1888 100.378 38.6533C101.062 38.1064 101.802 37.833 102.6 37.833C103.374 37.833 104.052 38.0951 104.633 38.6191C105.214 39.1432 105.607 39.9123 105.812 40.9263C106.826 38.8641 108.137 37.833 109.743 37.833C110.415 37.833 111.014 38.0039 111.538 38.3457C112.073 38.6761 112.495 39.1888 112.802 39.8838C113.121 40.5674 113.281 41.4105 113.281 42.4131V51.6758H114.34ZM125.534 37.833C127.676 37.833 129.283 38.3115 130.354 39.2686C131.424 40.2256 131.96 41.644 131.96 43.5239V50.3257C131.96 51.2257 132.336 51.6758 133.088 51.6758H133.686C134.073 51.6758 134.347 51.7669 134.506 51.9492C134.677 52.1201 134.763 52.4163 134.763 52.8379C134.763 53.2594 134.677 53.5614 134.506 53.7437C134.347 53.9146 134.073 54 133.686 54H132.592C131.852 54 131.214 53.8177 130.678 53.4531C130.154 53.0771 129.812 52.5303 129.653 51.8125C128.719 52.6328 127.705 53.2651 126.611 53.7095C125.528 54.1538 124.378 54.376 123.159 54.376C122.008 54.376 120.988 54.1823 120.1 53.7949C119.222 53.3962 118.533 52.8208 118.032 52.0688C117.53 51.3169 117.28 50.4225 117.28 49.3857C117.28 47.5856 117.924 46.2583 119.211 45.4038C120.498 44.5379 122.162 44.105 124.201 44.105C126.013 44.105 127.744 44.3955 129.396 44.9766V43.5239C129.396 42.4188 129.083 41.6099 128.457 41.0972C127.841 40.5731 126.844 40.311 125.466 40.311C124.611 40.311 123.723 40.4307 122.8 40.6699C121.877 40.9092 121 41.2396 120.168 41.6611C119.974 41.7637 119.798 41.8149 119.638 41.8149C119.262 41.8149 118.949 41.5415 118.698 40.9946C118.573 40.7212 118.51 40.4933 118.51 40.311C118.51 39.9123 118.721 39.6047 119.143 39.3882C120.1 38.8869 121.125 38.5052 122.219 38.2432C123.324 37.9697 124.429 37.833 125.534 37.833ZM124.218 46.5146C122.908 46.5146 121.871 46.7425 121.108 47.1982C120.356 47.6426 119.98 48.3547 119.98 49.3345C119.98 50.1662 120.265 50.8156 120.834 51.2827C121.416 51.7384 122.224 51.9663 123.261 51.9663C125.528 51.9663 127.574 51.0264 129.396 49.1465V47.2837C128.622 47.033 127.79 46.8451 126.901 46.7197C126.013 46.583 125.118 46.5146 124.218 46.5146ZM151.682 37.833C152.57 37.833 153.402 38.0609 154.177 38.5166C154.632 38.79 154.86 39.1432 154.86 39.5762C154.86 39.7812 154.809 40.0205 154.707 40.2939C154.467 40.9434 154.137 41.2681 153.715 41.2681C153.544 41.2681 153.385 41.2225 153.237 41.1313C152.679 40.8237 152.08 40.6699 151.442 40.6699C150.417 40.6699 149.386 41.0288 148.349 41.7466C147.312 42.453 146.458 43.3986 145.786 44.5835C145.125 45.7684 144.794 47.0273 144.794 48.3604V51.6758H150.554C150.941 51.6758 151.215 51.7669 151.374 51.9492C151.545 52.1201 151.63 52.4163 151.63 52.8379C151.63 53.2594 151.545 53.5614 151.374 53.7437C151.215 53.9146 150.941 54 150.554 54H139.548C139.16 54 138.881 53.9146 138.71 53.7437C138.551 53.5614 138.471 53.2594 138.471 52.8379C138.471 52.4163 138.551 52.1201 138.71 51.9492C138.881 51.7669 139.16 51.6758 139.548 51.6758H142.231V40.5332H140.061C139.673 40.5332 139.394 40.4478 139.223 40.2769C139.064 40.0946 138.984 39.7926 138.984 39.3711C138.984 38.9495 139.064 38.6533 139.223 38.4824C139.394 38.3001 139.673 38.209 140.061 38.209H143.547C143.934 38.209 144.208 38.3001 144.367 38.4824C144.538 38.6533 144.624 38.9495 144.624 39.3711V42.8232C145.17 41.8206 145.831 40.9434 146.606 40.1914C147.381 39.4395 148.207 38.8584 149.084 38.4482C149.961 38.0381 150.827 37.833 151.682 37.833ZM164.772 33.3384C165.24 33.3384 165.57 33.4238 165.764 33.5947C165.957 33.7656 166.054 34.0505 166.054 34.4492V39.5762H173.078C173.465 39.5762 173.739 39.6673 173.898 39.8496C174.069 40.0205 174.155 40.3167 174.155 40.7383C174.155 41.1598 174.069 41.4618 173.898 41.644C173.739 41.8149 173.465 41.9004 173.078 41.9004H166.054V48.1211C166.054 49.4199 166.276 50.3713 166.721 50.9751C167.176 51.5789 167.963 51.8809 169.079 51.8809C169.842 51.8809 170.646 51.7271 171.489 51.4194C172.332 51.1118 173.146 50.7017 173.933 50.189C174.092 50.075 174.269 50.0181 174.462 50.0181C174.85 50.0181 175.18 50.2801 175.454 50.8042C175.602 51.1004 175.676 51.3568 175.676 51.5732C175.676 51.9378 175.488 52.234 175.112 52.4619C174.223 53.0202 173.232 53.4816 172.138 53.8462C171.044 54.1994 170.025 54.376 169.079 54.376C167.142 54.376 165.724 53.8747 164.824 52.8721C163.935 51.8581 163.491 50.3485 163.491 48.3433V41.9004H160.021C159.634 41.9004 159.355 41.8149 159.184 41.644C159.025 41.4618 158.945 41.1598 158.945 40.7383C158.945 40.3167 159.025 40.0205 159.184 39.8496C159.355 39.6673 159.634 39.5762 160.021 39.5762H163.491V34.4492C163.491 34.0505 163.588 33.7656 163.781 33.5947C163.975 33.4238 164.305 33.3384 164.772 33.3384ZM195.004 33.3384C195.472 33.3384 195.802 33.4238 195.996 33.5947C196.189 33.7656 196.286 34.0505 196.286 34.4492V40.0889C196.286 40.4876 196.189 40.7725 195.996 40.9434C195.802 41.1143 195.472 41.1997 195.004 41.1997C194.537 41.1997 194.207 41.1143 194.013 40.9434C193.819 40.7725 193.723 40.4876 193.723 40.0889C193.723 39.3141 193.546 38.6077 193.193 37.9697C192.851 37.3317 192.321 36.8247 191.604 36.4487C190.886 36.0614 189.997 35.8677 188.938 35.8677C187.707 35.8677 186.613 36.1924 185.656 36.8418C184.711 37.4912 183.97 38.4198 183.435 39.6274C182.91 40.8351 182.648 42.2479 182.648 43.8657C182.648 45.4836 182.899 46.8963 183.4 48.104C183.902 49.3003 184.614 50.2231 185.537 50.8726C186.459 51.522 187.536 51.8467 188.767 51.8467C189.895 51.8467 190.971 51.6815 191.997 51.3511C193.022 51.0207 193.945 50.5422 194.765 49.9155C194.959 49.756 195.17 49.6763 195.397 49.6763C195.739 49.6763 196.041 49.8984 196.303 50.3428C196.508 50.6846 196.611 50.9865 196.611 51.2485C196.611 51.5903 196.434 51.8866 196.081 52.1372C195.021 52.8778 193.865 53.436 192.612 53.812C191.37 54.188 190.088 54.376 188.767 54.376C186.989 54.376 185.434 53.943 184.101 53.0771C182.779 52.1999 181.754 50.9694 181.025 49.3857C180.307 47.8021 179.948 45.9621 179.948 43.8657C179.948 41.7808 180.319 39.9465 181.059 38.3628C181.8 36.7677 182.836 35.5316 184.169 34.6543C185.514 33.777 187.046 33.3384 188.767 33.3384C189.838 33.3384 190.789 33.5207 191.621 33.8853C192.452 34.2498 193.153 34.7682 193.723 35.4404V34.4492C193.723 34.0505 193.819 33.7656 194.013 33.5947C194.207 33.4238 194.537 33.3384 195.004 33.3384ZM209.855 31.5781C210.243 31.5781 210.516 31.6693 210.676 31.8516C210.847 32.0225 210.932 32.3187 210.932 32.7402V51.6758H216.418C216.805 51.6758 217.079 51.7669 217.238 51.9492C217.409 52.1201 217.495 52.4163 217.495 52.8379C217.495 53.2594 217.409 53.5614 217.238 53.7437C217.079 53.9146 216.805 54 216.418 54H203.02C202.632 54 202.353 53.9146 202.182 53.7437C202.023 53.5614 201.943 53.2594 201.943 52.8379C201.943 52.4163 202.023 52.1201 202.182 51.9492C202.353 51.7669 202.632 51.6758 203.02 51.6758H208.369V33.9023H203.703C203.316 33.9023 203.037 33.8169 202.866 33.646C202.706 33.4637 202.626 33.1618 202.626 32.7402C202.626 32.3187 202.706 32.0225 202.866 31.8516C203.037 31.6693 203.316 31.5781 203.703 31.5781H209.855ZM230.466 37.833C232.608 37.833 234.214 38.3115 235.285 39.2686C236.356 40.2256 236.892 41.644 236.892 43.5239V50.3257C236.892 51.2257 237.268 51.6758 238.02 51.6758H238.618C239.005 51.6758 239.278 51.7669 239.438 51.9492C239.609 52.1201 239.694 52.4163 239.694 52.8379C239.694 53.2594 239.609 53.5614 239.438 53.7437C239.278 53.9146 239.005 54 238.618 54H237.524C236.783 54 236.145 53.8177 235.61 53.4531C235.086 53.0771 234.744 52.5303 234.584 51.8125C233.65 52.6328 232.636 53.2651 231.542 53.7095C230.46 54.1538 229.309 54.376 228.09 54.376C226.94 54.376 225.92 54.1823 225.031 53.7949C224.154 53.3962 223.465 52.8208 222.963 52.0688C222.462 51.3169 222.211 50.4225 222.211 49.3857C222.211 47.5856 222.855 46.2583 224.143 45.4038C225.43 44.5379 227.093 44.105 229.133 44.105C230.944 44.105 232.676 44.3955 234.328 44.9766V43.5239C234.328 42.4188 234.015 41.6099 233.388 41.0972C232.773 40.5731 231.776 40.311 230.397 40.311C229.543 40.311 228.654 40.4307 227.731 40.6699C226.809 40.9092 225.931 41.2396 225.1 41.6611C224.906 41.7637 224.729 41.8149 224.57 41.8149C224.194 41.8149 223.881 41.5415 223.63 40.9946C223.505 40.7212 223.442 40.4933 223.442 40.311C223.442 39.9123 223.653 39.6047 224.074 39.3882C225.031 38.8869 226.057 38.5052 227.15 38.2432C228.256 37.9697 229.361 37.833 230.466 37.833ZM229.15 46.5146C227.84 46.5146 226.803 46.7425 226.04 47.1982C225.288 47.6426 224.912 48.3547 224.912 49.3345C224.912 50.1662 225.196 50.8156 225.766 51.2827C226.347 51.7384 227.156 51.9663 228.193 51.9663C230.46 51.9663 232.505 51.0264 234.328 49.1465V47.2837C233.553 47.033 232.722 46.8451 231.833 46.7197C230.944 46.583 230.05 46.5146 229.15 46.5146ZM256.767 37.833C257.234 37.833 257.565 37.9185 257.758 38.0894C257.952 38.2603 258.049 38.5451 258.049 38.9438V42.1909C258.049 42.5897 257.952 42.8745 257.758 43.0454C257.565 43.2163 257.234 43.3018 256.767 43.3018C256.38 43.3018 256.106 43.1536 255.947 42.8574C255.457 41.9232 254.745 41.2681 253.811 40.8921C252.876 40.5047 251.691 40.311 250.256 40.311C249.151 40.311 248.285 40.5104 247.658 40.9092C247.043 41.2965 246.735 41.8434 246.735 42.5498C246.735 42.9144 246.849 43.2106 247.077 43.4385C247.316 43.6663 247.664 43.8543 248.12 44.0024C248.496 44.1278 248.929 44.2246 249.418 44.293C249.92 44.3613 250.563 44.4354 251.35 44.5151C252.455 44.6405 253.343 44.7601 254.016 44.874C254.699 44.9766 255.343 45.1361 255.947 45.3525C256.858 45.6829 257.565 46.1615 258.066 46.7881C258.579 47.4147 258.835 48.2407 258.835 49.2661C258.835 50.2915 258.573 51.1916 258.049 51.9663C257.536 52.7297 256.778 53.3221 255.776 53.7437C254.785 54.1652 253.594 54.376 252.204 54.376C250.974 54.376 249.891 54.2051 248.957 53.8633C248.023 53.5215 247.208 53.0031 246.513 52.3081V53.2651C246.513 53.6639 246.416 53.9487 246.223 54.1196C246.029 54.2905 245.699 54.376 245.231 54.376C244.764 54.376 244.434 54.2905 244.24 54.1196C244.047 53.9487 243.95 53.6639 243.95 53.2651V49.1636C243.95 48.7648 244.047 48.48 244.24 48.3091C244.434 48.1382 244.764 48.0527 245.231 48.0527C245.471 48.0527 245.659 48.1097 245.795 48.2236C245.932 48.3262 246.052 48.5028 246.154 48.7534C246.564 49.8472 247.248 50.6447 248.205 51.146C249.162 51.6473 250.438 51.8979 252.033 51.8979C253.355 51.8979 254.369 51.6587 255.075 51.1802C255.782 50.7017 256.135 50.0636 256.135 49.2661C256.135 48.8787 256.009 48.5597 255.759 48.3091C255.508 48.0584 255.149 47.8534 254.682 47.6938C254.283 47.5685 253.822 47.466 253.298 47.3862C252.785 47.2951 252.13 47.2096 251.333 47.1299C250.262 47.016 249.367 46.8963 248.649 46.771C247.932 46.6457 247.271 46.4634 246.667 46.2241C245.835 45.8937 245.186 45.438 244.719 44.8569C244.263 44.2645 244.035 43.4954 244.035 42.5498C244.035 41.5586 244.292 40.7098 244.804 40.0034C245.328 39.2856 246.046 38.7445 246.958 38.3799C247.88 38.0153 248.923 37.833 250.085 37.833C251.19 37.833 252.198 37.9982 253.11 38.3286C254.033 38.659 254.825 39.1204 255.485 39.7129V38.9438C255.485 38.5451 255.582 38.2603 255.776 38.0894C255.97 37.9185 256.3 37.833 256.767 37.833ZM277.753 37.833C278.221 37.833 278.551 37.9185 278.745 38.0894C278.938 38.2603 279.035 38.5451 279.035 38.9438V42.1909C279.035 42.5897 278.938 42.8745 278.745 43.0454C278.551 43.2163 278.221 43.3018 277.753 43.3018C277.366 43.3018 277.093 43.1536 276.933 42.8574C276.443 41.9232 275.731 41.2681 274.797 40.8921C273.863 40.5047 272.678 40.311 271.242 40.311C270.137 40.311 269.271 40.5104 268.645 40.9092C268.029 41.2965 267.722 41.8434 267.722 42.5498C267.722 42.9144 267.836 43.2106 268.063 43.4385C268.303 43.6663 268.65 43.8543 269.106 44.0024C269.482 44.1278 269.915 44.2246 270.405 44.293C270.906 44.3613 271.55 44.4354 272.336 44.5151C273.441 44.6405 274.33 44.7601 275.002 44.874C275.686 44.9766 276.329 45.1361 276.933 45.3525C277.845 45.6829 278.551 46.1615 279.052 46.7881C279.565 47.4147 279.821 48.2407 279.821 49.2661C279.821 50.2915 279.559 51.1916 279.035 51.9663C278.522 52.7297 277.765 53.3221 276.762 53.7437C275.771 54.1652 274.58 54.376 273.19 54.376C271.96 54.376 270.878 54.2051 269.943 53.8633C269.009 53.5215 268.194 53.0031 267.5 52.3081V53.2651C267.5 53.6639 267.403 53.9487 267.209 54.1196C267.015 54.2905 266.685 54.376 266.218 54.376C265.751 54.376 265.42 54.2905 265.227 54.1196C265.033 53.9487 264.936 53.6639 264.936 53.2651V49.1636C264.936 48.7648 265.033 48.48 265.227 48.3091C265.42 48.1382 265.751 48.0527 266.218 48.0527C266.457 48.0527 266.645 48.1097 266.782 48.2236C266.918 48.3262 267.038 48.5028 267.141 48.7534C267.551 49.8472 268.234 50.6447 269.191 51.146C270.148 51.6473 271.424 51.8979 273.02 51.8979C274.341 51.8979 275.355 51.6587 276.062 51.1802C276.768 50.7017 277.121 50.0636 277.121 49.2661C277.121 48.8787 276.996 48.5597 276.745 48.3091C276.494 48.0584 276.136 47.8534 275.668 47.6938C275.27 47.5685 274.808 47.466 274.284 47.3862C273.771 47.2951 273.116 47.2096 272.319 47.1299C271.248 47.016 270.354 46.8963 269.636 46.771C268.918 46.6457 268.257 46.4634 267.653 46.2241C266.822 45.8937 266.172 45.438 265.705 44.8569C265.249 44.2645 265.021 43.4954 265.021 42.5498C265.021 41.5586 265.278 40.7098 265.791 40.0034C266.315 39.2856 267.032 38.7445 267.944 38.3799C268.867 38.0153 269.909 37.833 271.071 37.833C272.176 37.833 273.185 37.9982 274.096 38.3286C275.019 38.659 275.811 39.1204 276.472 39.7129V38.9438C276.472 38.5451 276.569 38.2603 276.762 38.0894C276.956 37.9185 277.286 37.833 277.753 37.833Z" fill="black"/>
</svg>
