<svg width="14" height="14" viewBox="0 0 14 14" fill="none" xmlns="http://www.w3.org/2000/svg">
<path d="M7 10C5.35 10 4 8.65 4 7C4 5.35 5.35 4 7 4C8.65 4 10 5.35 10 7C10 8.65 8.65 10 7 10ZM7 5C5.9 5 5 5.9 5 7C5 8.1 5.9 9 7 9C8.1 9 9 8.1 9 7C9 5.9 8.1 5 7 5Z" fill="black"/>
<path d="M7.00012 12C3.81012 12 1.01012 10.06 0.030122 7.16C-0.0100407 7.05711 -0.0100407 6.94289 0.030122 6.84C1.01012 3.95 3.82012 2 7.00012 2C10.1801 2 12.9901 3.94 13.9701 6.84C14.0101 6.94 14.0101 7.06 13.9701 7.16C12.9901 10.05 10.1801 12 7.00012 12ZM1.03012 7C1.92012 9.4 4.30012 11 7.00012 11C9.70012 11 12.0701 9.4 12.9701 7C12.0801 4.6 9.70012 3 7.00012 3C4.30012 3 1.93012 4.6 1.03012 7Z" fill="black"/>
<path d="M13 13.5002C12.9344 13.501 12.8694 13.4881 12.8091 13.4623C12.7489 13.4364 12.6946 13.3983 12.65 13.3502L0.65 1.35023C0.45 1.15023 0.45 0.840234 0.65 0.640234C0.85 0.440234 1.16 0.440234 1.36 0.640234L13.35 12.6502C13.55 12.8502 13.55 13.1602 13.35 13.3602C13.25 13.4602 13.12 13.5102 13 13.5102V13.5002Z" fill="black"/>
</svg>
